<svg width="25" height="25" viewBox="0 0 13 12" fill="none" xmlns="http://www.w3.org/2000/svg">
<path d="M13 4.30028L7.0525 0.173764C6.8906 0.0605532 6.6992 0 6.50325 0C6.3073 0 6.1159 0.0605532 5.954 0.173764L0 4.30028L0.689 5.33358L1.3 4.91359V11.3334C1.3 11.5102 1.36848 11.6797 1.49038 11.8047C1.61228 11.9298 1.77761 12 1.95 12H5.85V8.66679H7.15V12H11.05C11.2224 12 11.3877 11.9298 11.5096 11.8047C11.6315 11.6797 11.7 11.5102 11.7 11.3334V4.91359L12.311 5.33358L13 4.30028ZM10.4 10.6667H8.45V8.00014C8.45 7.82334 8.38152 7.65378 8.25962 7.52876C8.13772 7.40374 7.97239 7.3335 7.8 7.3335H5.2C5.02761 7.3335 4.86228 7.40374 4.74038 7.52876C4.61848 7.65378 4.55 7.82334 4.55 8.00014V10.6667H2.6V3.92696L6.5 1.26039L10.4 3.92696V10.6667Z" fill="#307655"/>
</svg>
