<svg width="82" height="95" viewBox="0 0 82 95" fill="none" xmlns="http://www.w3.org/2000/svg">
<g clip-path="url(#clip0_188_301)">
<path d="M41.797 63.9576L22.4141 43.973L31.5883 34.5184L41.0296 44.2484L72.122 6.57849L81.9999 15.2463L41.797 63.9576Z" fill="#D0D0D0"/>
<path d="M41.3829 67.3791L22 47.3946L31.1742 37.9399L40.6156 47.6699L71.7079 10L81.5859 18.6678L41.3829 67.3791Z" fill="url(#paint0_linear_188_301)"/>
<path d="M74.7802 31.3668V45.8876C74.7802 65.741 64.8852 77.7571 56.5843 84.3443C47.7196 91.373 38.876 93.764 38.5029 93.8645C38.1638 93.9519 37.8162 94 37.4685 94C37.0997 94 36.7393 93.9476 36.3832 93.8514C36.0144 93.7465 27.1878 91.2419 18.3357 84.1694C6.43977 74.6536 0.152621 61.418 0.152621 45.8876L0 14.8617C23.1942 14.8617 37.3328 0.126761 37.3922 0C37.7229 0.681888 45.7906 11.0938 59.9971 13.8957L53.9474 21.2259C45.6846 18.765 40.5209 14.7174 37.4685 11.4216C33.1019 16.1424 24.3982 22.393 8.49168 23.3372V45.8876C8.49168 58.8434 13.5239 69.4346 23.4528 77.3768C29.3118 82.0626 35.1495 84.3924 37.4855 85.2054C39.8511 84.4011 45.85 82.0713 51.7259 77.3462C61.4936 69.5001 66.4411 58.9134 66.4411 45.8876V41.4684L74.7802 31.3668Z" fill="#C0C0C0"/>
</g>
<path d="M74.7802 32.3668V46.8876C74.7802 66.741 64.8852 78.7571 56.5843 85.3443C47.7196 92.373 38.876 94.764 38.5029 94.8645C38.1638 94.9519 37.8161 95 37.4685 95C37.0997 95 36.7393 94.9476 36.3832 94.8514C36.0144 94.7465 27.1878 92.2419 18.3357 85.1694C6.43977 75.6536 0.152621 62.418 0.152621 46.8876L0 15.8617C23.1942 15.8617 37.3328 1.12676 37.3922 1C37.7229 1.68189 45.7906 12.0938 59.9971 14.8957L53.9474 22.2259C45.6846 19.765 40.5209 15.7174 37.4685 12.4216C33.1018 17.1424 24.3982 23.393 8.49168 24.3372V46.8876C8.49168 59.8434 13.5239 70.4346 23.4528 78.3768C29.3118 83.0626 35.1495 85.3924 37.4855 86.2054C39.8511 85.4011 45.85 83.0713 51.7259 78.3462C61.4936 70.5001 66.4411 59.9134 66.4411 46.8876V42.4684L74.7802 32.3668Z" fill="url(#paint1_linear_188_301)"/>
<defs>
<linearGradient id="paint0_linear_188_301" x1="22" y1="38.6896" x2="48.3705" y2="38.7522" gradientUnits="userSpaceOnUse">
<stop offset="0.12206" stop-color="#578A48"/>
<stop offset="0.9375" stop-color="#326942"/>
</linearGradient>
<linearGradient id="paint1_linear_188_301" x1="-6.93051e-08" y1="48" x2="33.0949" y2="48.0602" gradientUnits="userSpaceOnUse">
<stop offset="0.12206" stop-color="#578A48"/>
<stop offset="0.9375" stop-color="#326942"/>
</linearGradient>
<clipPath id="clip0_188_301">
<rect width="82" height="94" fill="white"/>
</clipPath>
</defs>
</svg>
