<svg width="25" height="25" viewBox="0 0 12 12" fill="none" xmlns="http://www.w3.org/2000/svg">
<path d="M11.4 2.82353H9V2.11765C9 1.55601 8.81036 1.01738 8.47279 0.620245C8.13523 0.223109 7.67739 0 7.2 0H4.8C4.32261 0 3.86477 0.223109 3.52721 0.620245C3.18964 1.01738 3 1.55601 3 2.11765V2.82353H0.6C0.44087 2.82353 0.288258 2.8979 0.175736 3.03028C0.0632141 3.16266 0 3.3422 0 3.52941V11.2941C0 11.4813 0.0632141 11.6609 0.175736 11.7933C0.288258 11.9256 0.44087 12 0.6 12H11.4C11.5591 12 11.7117 11.9256 11.8243 11.7933C11.9368 11.6609 12 11.4813 12 11.2941V3.52941C12 3.3422 11.9368 3.16266 11.8243 3.03028C11.7117 2.8979 11.5591 2.82353 11.4 2.82353ZM4.2 2.11765C4.2 1.93044 4.26321 1.75089 4.37574 1.61851C4.48826 1.48613 4.64087 1.41176 4.8 1.41176H7.2C7.35913 1.41176 7.51174 1.48613 7.62426 1.61851C7.73679 1.75089 7.8 1.93044 7.8 2.11765V2.82353H4.2V2.11765ZM10.8 10.5882H1.2V7.05882H10.8V10.5882ZM10.8 6.35294H1.2V4.23529H10.8V6.35294Z" fill="#63987F"/>
</svg>
