<svg width="25" height="25" viewBox="0 0 15 12" fill="none" xmlns="http://www.w3.org/2000/svg">
<rect width="15" height="12" fill="#A78C8C"/>
<rect width="33195" height="16061" transform="translate(-9627 -5653)" fill="#9BC1FB"/>
<g clip-path="url(#clip0_0_1)">
<rect width="1448" height="1438" transform="translate(-549 -14)" fill="#F5F5F5"/>
<g filter="url(#filter0_d_0_1)">
<rect x="-549" y="-14" width="1448" height="53" fill="white"/>
</g>
<path d="M13.5261 7.70526L12.3913 7.28842V6.85895L12.5543 6.6C12.8736 6.1011 13.043 5.52589 13.0435 4.93895V4.42105C13.0435 3.91854 12.8373 3.4366 12.4704 3.08127C12.1035 2.72594 11.6059 2.52632 11.087 2.52632C10.5681 2.52632 10.0704 2.72594 9.70349 3.08127C9.33657 3.4366 9.13043 3.91854 9.13043 4.42105V4.93895C9.13091 5.52589 9.30029 6.1011 9.61957 6.6L9.78261 6.85895V7.28842L9.13043 7.5221C9.00946 7.45341 8.88297 7.39427 8.75217 7.34526L7.15435 6.71368V5.57684C7.58437 4.83791 7.81538 4.00603 7.82609 3.15789V2.52632C7.82609 1.8563 7.55124 1.21372 7.06202 0.739941C6.57279 0.266165 5.90926 0 5.21739 0C4.52552 0 3.86199 0.266165 3.37276 0.739941C2.88354 1.21372 2.6087 1.8563 2.6087 2.52632V3.15789C2.61013 4.01081 2.83449 4.84949 3.26087 5.59579V6.75789L1.66304 7.38947C1.18115 7.57088 0.765794 7.88686 0.469695 8.2973C0.173595 8.70775 0.0101119 9.19414 0 9.69474L0 11.3684C0 11.5359 0.068711 11.6966 0.191017 11.815C0.313324 11.9335 0.479207 12 0.652174 12H14.3478C14.5208 12 14.6867 11.9335 14.809 11.815C14.9313 11.6966 15 11.5359 15 11.3684V9.77053C14.9996 9.32214 14.8584 8.88447 14.5952 8.5156C14.3319 8.14674 13.9591 7.86412 13.5261 7.70526ZM10.4348 4.26316C10.4348 4.09565 10.5035 3.93501 10.6258 3.81656C10.7481 3.69812 10.914 3.63158 11.087 3.63158C11.2599 3.63158 11.4258 3.69812 11.5481 3.81656C11.6704 3.93501 11.7391 4.09565 11.7391 4.26316V5.17263C11.739 5.49543 11.6537 5.81283 11.4913 6.09474L11.2761 6.47368C11.262 6.4986 11.2413 6.51938 11.216 6.53383C11.1907 6.54828 11.1619 6.55587 11.1326 6.55579H11.0413C11.012 6.55587 10.9832 6.54828 10.9579 6.53383C10.9327 6.51938 10.9119 6.4986 10.8978 6.47368L10.6826 6.09474C10.5202 5.81283 10.4349 5.49543 10.4348 5.17263V4.26316ZM3.91304 2.43158C3.91304 2.09657 4.05047 1.77528 4.29508 1.53839C4.53969 1.3015 4.87146 1.16842 5.21739 1.16842C5.56333 1.16842 5.89509 1.3015 6.1397 1.53839C6.38432 1.77528 6.52174 2.09657 6.52174 2.43158V3.33474C6.52161 3.95835 6.36256 4.57229 6.0587 5.1221L5.86957 5.50737C5.81411 5.60822 5.73145 5.69261 5.63039 5.75156C5.52932 5.81051 5.41363 5.8418 5.29565 5.8421H5.16522C5.04284 5.84649 4.92167 5.81742 4.81556 5.75822C4.70945 5.69902 4.62269 5.61209 4.56522 5.50737L4.35 5.1221C4.0552 4.57003 3.90514 3.95621 3.91304 3.33474V2.43158ZM9.13043 10.7368H1.30435V9.63158C1.3041 9.3786 1.38229 9.13137 1.5288 8.92192C1.67531 8.71247 1.88339 8.55045 2.12609 8.45684L4.56522 7.52842V6.89684C4.77435 6.97037 4.99491 7.00882 5.21739 7.01053C5.43988 7.00882 5.66043 6.97037 5.86957 6.89684V7.52842L8.29565 8.42526C8.54182 8.51725 8.7534 8.67938 8.90244 8.89024C9.05148 9.10111 9.13097 9.35079 9.13043 9.60631V10.7368ZM13.6957 10.7368H10.4348V9.69474C10.432 9.25046 10.3083 8.81476 10.0761 8.43158L10.7609 8.17895V7.62316C10.8465 7.64217 10.9339 7.65275 11.0217 7.65474H11.1522C11.24 7.65275 11.3274 7.64217 11.413 7.62316V8.17895L13.063 8.81053C13.2523 8.87531 13.4164 8.99491 13.533 9.15308C13.6497 9.31126 13.7133 9.50036 13.7152 9.69474V10.7368H13.6957Z" fill="#63987F"/>
</g>
<g clip-path="url(#clip1_0_1)">
<rect width="1448" height="1438" transform="translate(-549 -14)" fill="#F5F5F5"/>
<g filter="url(#filter1_d_0_1)">
<rect x="-549" y="-14" width="1448" height="53" fill="white"/>
</g>
<path d="M13.5261 7.70526L12.3913 7.28842V6.85895L12.5543 6.6C12.8736 6.1011 13.043 5.52589 13.0435 4.93895V4.42105C13.0435 3.91854 12.8373 3.4366 12.4704 3.08127C12.1035 2.72594 11.6059 2.52632 11.087 2.52632C10.5681 2.52632 10.0704 2.72594 9.70349 3.08127C9.33657 3.4366 9.13043 3.91854 9.13043 4.42105V4.93895C9.13091 5.52589 9.30029 6.1011 9.61957 6.6L9.78261 6.85895V7.28842L9.13043 7.5221C9.00946 7.45341 8.88297 7.39427 8.75217 7.34526L7.15435 6.71368V5.57684C7.58437 4.83791 7.81538 4.00603 7.82609 3.15789V2.52632C7.82609 1.8563 7.55124 1.21372 7.06202 0.739941C6.57279 0.266165 5.90926 0 5.21739 0C4.52552 0 3.86199 0.266165 3.37276 0.739941C2.88354 1.21372 2.6087 1.8563 2.6087 2.52632V3.15789C2.61013 4.01081 2.83449 4.84949 3.26087 5.59579V6.75789L1.66304 7.38947C1.18115 7.57088 0.765794 7.88686 0.469695 8.2973C0.173595 8.70775 0.0101119 9.19414 0 9.69474L0 11.3684C0 11.5359 0.068711 11.6966 0.191017 11.815C0.313324 11.9335 0.479207 12 0.652174 12H14.3478C14.5208 12 14.6867 11.9335 14.809 11.815C14.9313 11.6966 15 11.5359 15 11.3684V9.77053C14.9996 9.32214 14.8584 8.88447 14.5952 8.5156C14.3319 8.14674 13.9591 7.86412 13.5261 7.70526ZM10.4348 4.26316C10.4348 4.09565 10.5035 3.93501 10.6258 3.81656C10.7481 3.69812 10.914 3.63158 11.087 3.63158C11.2599 3.63158 11.4258 3.69812 11.5481 3.81656C11.6704 3.93501 11.7391 4.09565 11.7391 4.26316V5.17263C11.739 5.49543 11.6537 5.81283 11.4913 6.09474L11.2761 6.47368C11.262 6.4986 11.2413 6.51938 11.216 6.53383C11.1907 6.54828 11.1619 6.55587 11.1326 6.55579H11.0413C11.012 6.55587 10.9832 6.54828 10.9579 6.53383C10.9327 6.51938 10.9119 6.4986 10.8978 6.47368L10.6826 6.09474C10.5202 5.81283 10.4349 5.49543 10.4348 5.17263V4.26316ZM3.91304 2.43158C3.91304 2.09657 4.05047 1.77528 4.29508 1.53839C4.53969 1.3015 4.87146 1.16842 5.21739 1.16842C5.56333 1.16842 5.89509 1.3015 6.1397 1.53839C6.38432 1.77528 6.52174 2.09657 6.52174 2.43158V3.33474C6.52161 3.95835 6.36256 4.57229 6.0587 5.1221L5.86957 5.50737C5.81411 5.60822 5.73145 5.69261 5.63039 5.75156C5.52932 5.81051 5.41363 5.8418 5.29565 5.8421H5.16522C5.04284 5.84649 4.92167 5.81742 4.81556 5.75822C4.70945 5.69902 4.62269 5.61209 4.56522 5.50737L4.35 5.1221C4.0552 4.57003 3.90514 3.95621 3.91304 3.33474V2.43158ZM9.13043 10.7368H1.30435V9.63158C1.3041 9.3786 1.38229 9.13137 1.5288 8.92192C1.67531 8.71247 1.88339 8.55045 2.12609 8.45684L4.56522 7.52842V6.89684C4.77435 6.97037 4.99491 7.00882 5.21739 7.01053C5.43988 7.00882 5.66043 6.97037 5.86957 6.89684V7.52842L8.29565 8.42526C8.54182 8.51725 8.7534 8.67938 8.90244 8.89024C9.05148 9.10111 9.13097 9.35079 9.13043 9.60631V10.7368ZM13.6957 10.7368H10.4348V9.69474C10.432 9.25046 10.3083 8.81476 10.0761 8.43158L10.7609 8.17895V7.62316C10.8465 7.64217 10.9339 7.65275 11.0217 7.65474H11.1522C11.24 7.65275 11.3274 7.64217 11.413 7.62316V8.17895L13.063 8.81053C13.2523 8.87531 13.4164 8.99491 13.533 9.15308C13.6497 9.31126 13.7133 9.50036 13.7152 9.69474V10.7368H13.6957Z" fill="#63987F"/>
</g>
<defs>
<filter id="filter0_d_0_1" x="-553" y="-14" width="1456" height="61" filterUnits="userSpaceOnUse" color-interpolation-filters="sRGB">
<feFlood flood-opacity="0" result="BackgroundImageFix"/>
<feColorMatrix in="SourceAlpha" type="matrix" values="0 0 0 0 0 0 0 0 0 0 0 0 0 0 0 0 0 0 127 0" result="hardAlpha"/>
<feOffset dy="4"/>
<feGaussianBlur stdDeviation="2"/>
<feComposite in2="hardAlpha" operator="out"/>
<feColorMatrix type="matrix" values="0 0 0 0 0 0 0 0 0 0 0 0 0 0 0 0 0 0 0.25 0"/>
<feBlend mode="normal" in2="BackgroundImageFix" result="effect1_dropShadow_0_1"/>
<feBlend mode="normal" in="SourceGraphic" in2="effect1_dropShadow_0_1" result="shape"/>
</filter>
<filter id="filter1_d_0_1" x="-553" y="-14" width="1456" height="61" filterUnits="userSpaceOnUse" color-interpolation-filters="sRGB">
<feFlood flood-opacity="0" result="BackgroundImageFix"/>
<feColorMatrix in="SourceAlpha" type="matrix" values="0 0 0 0 0 0 0 0 0 0 0 0 0 0 0 0 0 0 127 0" result="hardAlpha"/>
<feOffset dy="4"/>
<feGaussianBlur stdDeviation="2"/>
<feComposite in2="hardAlpha" operator="out"/>
<feColorMatrix type="matrix" values="0 0 0 0 0 0 0 0 0 0 0 0 0 0 0 0 0 0 0.25 0"/>
<feBlend mode="normal" in2="BackgroundImageFix" result="effect1_dropShadow_0_1"/>
<feBlend mode="normal" in="SourceGraphic" in2="effect1_dropShadow_0_1" result="shape"/>
</filter>
<clipPath id="clip0_0_1">
<rect width="1448" height="1438" fill="white" transform="translate(-549 -14)"/>
</clipPath>
<clipPath id="clip1_0_1">
<rect width="1448" height="1438" fill="white" transform="translate(-549 -14)"/>
</clipPath>
</defs>
</svg>
