<svg width="25" height="25" viewBox="0 0 14 12" fill="none" xmlns="http://www.w3.org/2000/svg">
<path d="M13.9506 10.084L12.442 7.2416C12.442 7.2416 12.1232 5.31303 11.8199 3.42227C11.6636 2.47545 11.0888 1.60673 10.2022 0.977364C9.31553 0.347997 8.17726 0.000722915 6.99864 7.8157e-07C5.81751 -0.000601468 4.6764 0.346868 3.78795 0.977659C2.89951 1.60845 2.32433 2.47953 2.16962 3.42857L1.55529 7.2416L0.0467091 10.084C0.0165301 10.1397 0.000654918 10.1997 5.18476e-05 10.2605C-0.000978123 10.3231 0.0133467 10.3853 0.0421946 10.4433C0.0710425 10.5014 0.113839 10.5543 0.168098 10.5988C0.222358 10.6434 0.286999 10.6788 0.35827 10.7029C0.429541 10.7271 0.50602 10.7395 0.583268 10.7395H5.4434C5.4434 11.0738 5.60726 11.3944 5.89892 11.6308C6.19059 11.8672 6.58617 12 6.99864 12C7.41112 12 7.8067 11.8672 8.09837 11.6308C8.39003 11.3944 8.55389 11.0738 8.55389 10.7395H13.4296C13.525 10.7388 13.6187 10.7189 13.7023 10.6816C13.7858 10.6443 13.8566 10.5907 13.9083 10.5257C13.96 10.4607 13.9909 10.3863 13.9983 10.3092C14.0057 10.2321 13.9893 10.1547 13.9506 10.084ZM6.99864 1.10294C7.8257 1.10317 8.62453 1.34675 9.24669 1.7884C9.86885 2.23006 10.272 2.83976 10.3813 3.5042C10.599 4.82773 10.8168 6.2458 10.9256 6.93277H3.11054L3.61599 3.5042C3.72526 2.83976 4.12844 2.23006 4.7506 1.7884C5.37276 1.34675 6.17159 1.10317 6.99864 1.10294ZM1.95966 9.45378L2.97057 7.56302H11.0267L12.0376 9.45378H1.92855H1.95966Z" fill="#63987F"/>
</svg>
