<svg width="40" height="40" viewBox="0 0 94 94" fill="none" xmlns="http://www.w3.org/2000/svg">
<g filter="url(#filter0_bdd_53_12460)">
<circle cx="46.8525" cy="47.3213" r="34.3213" fill="url(#paint0_linear_53_12460)"/>
</g>
<rect width="36.3401" height="36.3401" transform="translate(28.6816 29.1523)" fill="url(#paint1_linear_53_12460)"/>
<path d="M43.8233 56.4074C43.8233 58.0799 45.1792 59.4358 46.8517 59.4358C48.5242 59.4358 49.88 58.0799 49.88 56.4074V50.3507H55.9367C57.6092 50.3507 58.965 48.9949 58.965 47.3224C58.965 45.6499 57.6092 44.294 55.9367 44.294H49.88V38.2373C49.88 36.5648 48.5242 35.209 46.8517 35.209C45.1792 35.209 43.8233 36.5648 43.8233 38.2373V44.294L37.7666 44.294C36.0941 44.294 34.7383 45.6499 34.7383 47.3224C34.7383 48.9949 36.0941 50.3507 37.7666 50.3507L43.8233 50.3507V56.4074Z" fill="white"/>
<defs>
<filter id="filter0_bdd_53_12460" x="-7.65772" y="-7.18897" width="109.021" height="109.021" filterUnits="userSpaceOnUse" color-interpolation-filters="sRGB">
<feFlood flood-opacity="0" result="BackgroundImageFix"/>
<feGaussianBlur in="BackgroundImageFix" stdDeviation="10.0945"/>
<feComposite in2="SourceAlpha" operator="in" result="effect1_backgroundBlur_53_12460"/>
<feColorMatrix in="SourceAlpha" type="matrix" values="0 0 0 0 0 0 0 0 0 0 0 0 0 0 0 0 0 0 127 0" result="hardAlpha"/>
<feOffset dx="4.03779" dy="4.03779"/>
<feGaussianBlur stdDeviation="4.03779"/>
<feComposite in2="hardAlpha" operator="out"/>
<feColorMatrix type="matrix" values="0 0 0 0 0.767917 0 0 0 0 0.80838 0 0 0 0 0.95 0 0 0 1 0"/>
<feBlend mode="normal" in2="effect1_backgroundBlur_53_12460" result="effect2_dropShadow_53_12460"/>
<feColorMatrix in="SourceAlpha" type="matrix" values="0 0 0 0 0 0 0 0 0 0 0 0 0 0 0 0 0 0 127 0" result="hardAlpha"/>
<feOffset dx="-4.03779" dy="-4.03779"/>
<feGaussianBlur stdDeviation="4.03779"/>
<feComposite in2="hardAlpha" operator="out"/>
<feColorMatrix type="matrix" values="0 0 0 0 0.9125 0 0 0 0 0.929054 0 0 0 0 1 0 0 0 1 0"/>
<feBlend mode="normal" in2="effect2_dropShadow_53_12460" result="effect3_dropShadow_53_12460"/>
<feBlend mode="normal" in="SourceGraphic" in2="effect3_dropShadow_53_12460" result="shape"/>
</filter>
<linearGradient id="paint0_linear_53_12460" x1="12.5312" y1="47.3213" x2="42.9098" y2="47.3907" gradientUnits="userSpaceOnUse">
<stop offset="0.12206" stop-color="#578A48"/>
<stop offset="0.9375" stop-color="#326942"/>
</linearGradient>
<linearGradient id="paint1_linear_53_12460" x1="-3.36795e-08" y1="18.1701" x2="16.0828" y2="18.2069" gradientUnits="userSpaceOnUse">
<stop offset="0.12206" stop-color="#578A48"/>
<stop offset="0.9375" stop-color="#326942"/>
</linearGradient>
</defs>
</svg>
