<svg width="25" height="25" viewBox="0 0 25 25" fill="none" xmlns="http://www.w3.org/2000/svg">
<path fill-rule="evenodd" clip-rule="evenodd" d="M8.8 0H10.0571C13.616 0 16.5993 2.51608 17.393 5.90078C17.5283 6.47798 17.6 7.08045 17.6 7.7C17.6 11.9526 14.223 15.4 10.0571 15.4H5.45778H2.51429C1.12568 15.4 0 14.2509 0 12.8333V8.98333C0 4.02198 3.9399 0 8.8 0ZM10.3714 17.6H6.66395C8.0244 18.9609 9.88764 19.8 11.9429 19.8H16.5422H19.4857C20.8743 19.8 22 18.6509 22 17.2333V13.3833C22 11.1032 21.1679 9.02157 19.7968 7.43749C19.7989 7.52471 19.8 7.61222 19.8 7.69999C19.8 13.1676 15.5787 17.6 10.3714 17.6Z" fill="url(#paint0_linear_296_4844)"/>
<defs>
<linearGradient id="paint0_linear_296_4844" x1="-2.03893e-08" y1="9.9" x2="9.73636" y2="9.92474" gradientUnits="userSpaceOnUse">
<stop offset="0.12206" stop-color="#578A48"/>
<stop offset="0.9375" stop-color="#326942"/>
</linearGradient>
</defs>
</svg>
